<svg width="31" height="30" viewBox="0 0 31 30" fill="none" xmlns="http://www.w3.org/2000/svg">
<g clip-path="url(#clip0_290_6757)">
<path d="M15.5 2.5C8.6 2.5 3 8.1 3 15C3 21.9 8.6 27.5 15.5 27.5C22.4 27.5 28 21.9 28 15C28 8.1 22.4 2.5 15.5 2.5ZM15.5 6.25C17.575 6.25 19.25 7.925 19.25 10C19.25 12.075 17.575 13.75 15.5 13.75C13.425 13.75 11.75 12.075 11.75 10C11.75 7.925 13.425 6.25 15.5 6.25ZM15.5 24C12.375 24 9.6125 22.4 8 19.975C8.0375 17.4875 13 16.125 15.5 16.125C17.9875 16.125 22.9625 17.4875 23 19.975C21.3875 22.4 18.625 24 15.5 24Z" fill="white"/>
</g>
<defs>
<clipPath id="clip0_290_6757">
<rect width="30" height="30" fill="white" transform="translate(0.5)"/>
</clipPath>
</defs>
</svg>
