<svg width="21" height="21" viewBox="0 0 21 21" fill="none" xmlns="http://www.w3.org/2000/svg">
<g clip-path="url(#clip0_1538_12031)">
<path d="M4.88867 15.1374H4.05534C3.61331 15.1374 3.18939 14.9618 2.87683 14.6492C2.56427 14.3367 2.38867 13.9127 2.38867 13.4707V5.13737C2.38867 4.69534 2.56427 4.27142 2.87683 3.95886C3.18939 3.6463 3.61331 3.4707 4.05534 3.4707H17.3887C17.8307 3.4707 18.2546 3.6463 18.5672 3.95886C18.8797 4.27142 19.0553 4.69534 19.0553 5.13737V13.4707C19.0553 13.9127 18.8797 14.3367 18.5672 14.6492C18.2546 14.9618 17.8307 15.1374 17.3887 15.1374H16.5553" stroke="#FAC917" stroke-width="2" stroke-linecap="round" stroke-linejoin="round"/>
<path d="M10.7223 13.4707L14.889 18.4707H6.55566L10.7223 13.4707Z" stroke="#FAC917" stroke-width="2" stroke-linecap="round" stroke-linejoin="round"/>
</g>
<defs>
<clipPath id="clip0_1538_12031">
<rect width="20" height="20" fill="white" transform="translate(0.722168 0.970703)"/>
</clipPath>
</defs>
</svg>
