<svg width="14" height="14" viewBox="0 0 14 14" fill="none" xmlns="http://www.w3.org/2000/svg">
<g clip-path="url(#clip0_463_9355)">
<path d="M9.9165 1.75083C10.0697 1.59762 10.2516 1.47609 10.4518 1.39317C10.652 1.31025 10.8665 1.26758 11.0832 1.26758C11.2998 1.26758 11.5144 1.31025 11.7146 1.39317C11.9147 1.47609 12.0966 1.59762 12.2498 1.75083C12.403 1.90404 12.5246 2.08592 12.6075 2.2861C12.6904 2.48628 12.7331 2.70082 12.7331 2.91749C12.7331 3.13416 12.6904 3.34871 12.6075 3.54889C12.5246 3.74907 12.403 3.93095 12.2498 4.08416L4.37484 11.9592L1.1665 12.8342L2.0415 9.62583L9.9165 1.75083Z" stroke="#9F9F9F" stroke-linecap="round" stroke-linejoin="round"/>
</g>
<defs>
<clipPath id="clip0_463_9355">
<rect width="14" height="14" fill="white"/>
</clipPath>
</defs>
</svg>
