<svg width="18" height="19" viewBox="0 0 18 19" fill="none" xmlns="http://www.w3.org/2000/svg">
<path d="M9.07577 8.601H17.7598V9.576C17.7598 10.7893 17.5518 11.9247 17.1358 12.982C16.7198 14.0307 16.1304 14.958 15.3678 15.764C14.6138 16.5613 13.7211 17.1853 12.6898 17.636C11.6584 18.0867 10.5188 18.312 9.27077 18.312C8.00544 18.312 6.84411 18.0823 5.78677 17.623C4.73811 17.155 3.82811 16.5137 3.05677 15.699C2.29411 14.8843 1.70044 13.9397 1.27577 12.865C0.859773 11.7903 0.651773 10.6377 0.651773 9.407C0.651773 8.185 0.859773 7.03667 1.27577 5.962C1.70044 4.88733 2.29411 3.94267 3.05677 3.128C3.82811 2.31333 4.73811 1.67633 5.78677 1.217C6.84411 0.757666 8.00544 0.527999 9.27077 0.527999C10.1981 0.527999 11.0301 0.631999 11.7668 0.839999C12.5121 1.03933 13.1751 1.31233 13.7558 1.659C14.3364 2.00567 14.8434 2.4 15.2768 2.842C15.7101 3.27533 16.0784 3.72167 16.3818 4.181L13.8598 5.455C13.3918 4.78767 12.7808 4.233 12.0268 3.791C11.2728 3.34033 10.3541 3.115 9.27077 3.115C8.43011 3.115 7.65444 3.27967 6.94377 3.609C6.24177 3.93833 5.63077 4.39333 5.11077 4.974C4.59944 5.55467 4.20077 6.22633 3.91477 6.989C3.63744 7.743 3.49877 8.549 3.49877 9.407C3.49877 10.265 3.63744 11.0753 3.91477 11.838C4.20077 12.6007 4.59944 13.2723 5.11077 13.853C5.63077 14.4337 6.24177 14.893 6.94377 15.231C7.65444 15.5603 8.43011 15.725 9.27077 15.725C10.0594 15.725 10.7744 15.5993 11.4158 15.348C12.0658 15.088 12.6291 14.7327 13.1058 14.282C13.5824 13.8313 13.9594 13.307 14.2368 12.709C14.5141 12.1023 14.6744 11.4523 14.7178 10.759H9.07577V8.601Z" fill="white"/>
</svg>
