<svg width="17" height="16" viewBox="0 0 17 16" fill="none" xmlns="http://www.w3.org/2000/svg">
<rect width="16" height="16" transform="translate(0.5)" fill="white" fill-opacity="0.01"/>
<path d="M8.50016 8.66732C8.86835 8.66732 9.16683 8.36884 9.16683 8.00065C9.16683 7.63246 8.86835 7.33398 8.50016 7.33398C8.13197 7.33398 7.8335 7.63246 7.8335 8.00065C7.8335 8.36884 8.13197 8.66732 8.50016 8.66732Z" stroke="#31AFD7" stroke-width="2" stroke-linecap="round" stroke-linejoin="round"/>
<path d="M13.1667 8.66732C13.5349 8.66732 13.8333 8.36884 13.8333 8.00065C13.8333 7.63246 13.5349 7.33398 13.1667 7.33398C12.7985 7.33398 12.5 7.63246 12.5 8.00065C12.5 8.36884 12.7985 8.66732 13.1667 8.66732Z" stroke="#31AFD7" stroke-width="2" stroke-linecap="round" stroke-linejoin="round"/>
<path d="M3.83317 8.66732C4.20136 8.66732 4.49984 8.36884 4.49984 8.00065C4.49984 7.63246 4.20136 7.33398 3.83317 7.33398C3.46498 7.33398 3.1665 7.63246 3.1665 8.00065C3.1665 8.36884 3.46498 8.66732 3.83317 8.66732Z" stroke="#31AFD7" stroke-width="2" stroke-linecap="round" stroke-linejoin="round"/>
</svg>
