<svg width="14" height="14" viewBox="0 0 14 14" fill="none" xmlns="http://www.w3.org/2000/svg">
<path d="M1.75 3.5H2.91667H12.25" stroke="#9F9F9F" stroke-linecap="round" stroke-linejoin="round"/>
<path d="M11.0832 3.49935V11.666C11.0832 11.9754 10.9603 12.2722 10.7415 12.491C10.5227 12.7098 10.2259 12.8327 9.9165 12.8327H4.08317C3.77375 12.8327 3.47701 12.7098 3.25821 12.491C3.03942 12.2722 2.9165 11.9754 2.9165 11.666V3.49935M4.6665 3.49935V2.33268C4.6665 2.02326 4.78942 1.72652 5.00821 1.50772C5.22701 1.28893 5.52375 1.16602 5.83317 1.16602H8.1665C8.47592 1.16602 8.77267 1.28893 8.99146 1.50772C9.21025 1.72652 9.33317 2.02326 9.33317 2.33268V3.49935" stroke="#9F9F9F" stroke-linecap="round" stroke-linejoin="round"/>
</svg>
