<svg width="16" height="14" viewBox="0 0 16 14" fill="none" xmlns="http://www.w3.org/2000/svg">
<path d="M16 0.00731324C15.3036 0.498569 14.5324 0.874302 13.7164 1.12004C13.2784 0.616412 12.6962 0.259453 12.0488 0.0974414C11.4013 -0.0645701 10.7196 -0.0238172 10.0961 0.214188C9.47248 0.452194 8.93705 0.875969 8.56217 1.4282C8.18729 1.98043 7.99105 2.63447 8 3.30186V4.02913C6.72192 4.06227 5.45547 3.77881 4.31346 3.204C3.17145 2.62919 2.18932 1.78087 1.45455 0.734586C1.45455 0.734586 -1.45455 7.28004 5.09091 10.1891C3.59311 11.2058 1.80884 11.7156 0 11.6437C6.54545 15.28 14.5455 11.6437 14.5455 3.28004C14.5448 3.07746 14.5253 2.87538 14.4873 2.6764C15.2295 1.9444 15.7533 1.0202 16 0.00731324Z" fill="white"/>
</svg>
